<mxfile host="app.diagrams.net" modified="2024-09-05T21:16:11.709Z" agent="Mozilla/5.0 (Windows NT 10.0; Win64; x64) AppleWebKit/537.36 (KHTML, like Gecko) Chrome/128.0.0.0 Safari/537.36" etag="dXgqtMoDCMefUGDzQrqs" version="24.6.4" type="device">
  <diagram name="Page-1" id="C-zfRQEUWmmVSO4rSc-n">
    <mxGraphModel dx="548" dy="308" grid="0" gridSize="10" guides="1" tooltips="1" connect="1" arrows="1" fold="1" page="1" pageScale="1" pageWidth="850" pageHeight="1100" math="0" shadow="0">
      <root>
        <mxCell id="0" />
        <mxCell id="1" parent="0" />
        <mxCell id="7O0wL1tR1qzXkG8G9W_j-7" style="edgeStyle=orthogonalEdgeStyle;rounded=0;orthogonalLoop=1;jettySize=auto;html=1;shape=link;fillColor=#dae8fc;strokeColor=#6c8ebf;" parent="1" edge="1">
          <mxGeometry relative="1" as="geometry">
            <mxPoint x="287.9999999999999" y="259" as="sourcePoint" />
            <mxPoint x="410" y="259.0344827586207" as="targetPoint" />
          </mxGeometry>
        </mxCell>
        <mxCell id="7O0wL1tR1qzXkG8G9W_j-13" value="CAN" style="edgeLabel;html=1;align=center;verticalAlign=middle;resizable=0;points=[];" parent="7O0wL1tR1qzXkG8G9W_j-7" vertex="1" connectable="0">
          <mxGeometry x="0.0388" y="1" relative="1" as="geometry">
            <mxPoint as="offset" />
          </mxGeometry>
        </mxCell>
        <mxCell id="7O0wL1tR1qzXkG8G9W_j-8" value="" style="edgeStyle=orthogonalEdgeStyle;rounded=0;orthogonalLoop=1;jettySize=auto;html=1;shape=link;fillColor=#f8cecc;strokeColor=#b85450;" parent="1" source="7O0wL1tR1qzXkG8G9W_j-5" edge="1">
          <mxGeometry relative="1" as="geometry">
            <mxPoint x="210" y="259" as="targetPoint" />
          </mxGeometry>
        </mxCell>
        <mxCell id="7O0wL1tR1qzXkG8G9W_j-12" value="i2c" style="edgeLabel;html=1;align=center;verticalAlign=middle;resizable=0;points=[];" parent="7O0wL1tR1qzXkG8G9W_j-8" vertex="1" connectable="0">
          <mxGeometry x="-0.0108" y="2" relative="1" as="geometry">
            <mxPoint x="-2" y="-2" as="offset" />
          </mxGeometry>
        </mxCell>
        <mxCell id="7O0wL1tR1qzXkG8G9W_j-5" value="Air Speed Sensor" style="rounded=1;whiteSpace=wrap;html=1;" parent="1" vertex="1">
          <mxGeometry x="70" y="224" width="80" height="70" as="geometry" />
        </mxCell>
        <mxCell id="7O0wL1tR1qzXkG8G9W_j-9" value="CAN Bridge uC" style="rounded=1;whiteSpace=wrap;html=1;" parent="1" vertex="1">
          <mxGeometry x="210" y="224" width="80" height="70" as="geometry" />
        </mxCell>
        <mxCell id="7O0wL1tR1qzXkG8G9W_j-11" value="Main Sensors uC" style="rounded=1;whiteSpace=wrap;html=1;" parent="1" vertex="1">
          <mxGeometry x="410" y="224" width="80" height="66" as="geometry" />
        </mxCell>
        <mxCell id="7O0wL1tR1qzXkG8G9W_j-14" value="Air Speed" style="swimlane;whiteSpace=wrap;html=1;" parent="1" vertex="1">
          <mxGeometry x="60" y="182" width="240" height="150" as="geometry" />
        </mxCell>
        <mxCell id="5_i3dgf7OuKja5BqbpSJ-3" value="" style="edgeStyle=orthogonalEdgeStyle;rounded=0;orthogonalLoop=1;jettySize=auto;html=1;shape=link;fillColor=#f8cecc;strokeColor=#b85450;" edge="1" parent="1">
          <mxGeometry relative="1" as="geometry">
            <mxPoint x="414" y="473" as="targetPoint" />
            <mxPoint x="309" y="473" as="sourcePoint" />
          </mxGeometry>
        </mxCell>
        <mxCell id="5_i3dgf7OuKja5BqbpSJ-4" value="i2c" style="edgeLabel;html=1;align=center;verticalAlign=middle;resizable=0;points=[];" vertex="1" connectable="0" parent="5_i3dgf7OuKja5BqbpSJ-3">
          <mxGeometry x="-0.0108" y="2" relative="1" as="geometry">
            <mxPoint x="-1" y="2" as="offset" />
          </mxGeometry>
        </mxCell>
        <mxCell id="5_i3dgf7OuKja5BqbpSJ-5" value="Air Speed Sensor" style="rounded=1;whiteSpace=wrap;html=1;" vertex="1" parent="1">
          <mxGeometry x="231" y="438" width="80" height="70" as="geometry" />
        </mxCell>
        <mxCell id="5_i3dgf7OuKja5BqbpSJ-7" value="Main Sensors uC" style="rounded=1;whiteSpace=wrap;html=1;" vertex="1" parent="1">
          <mxGeometry x="414" y="438" width="80" height="66" as="geometry" />
        </mxCell>
      </root>
    </mxGraphModel>
  </diagram>
</mxfile>
